<svg width="35" height="32" viewBox="0 0 35 32" fill="none" xmlns="http://www.w3.org/2000/svg">
<path d="M26.625 25.5C24.8375 25.5 23.3913 26.925 23.3913 28.6667C23.3913 30.4083 24.8375 31.8333 26.625 31.8333C28.4125 31.8333 29.875 30.4083 29.875 28.6667C29.875 26.925 28.4125 25.5 26.625 25.5ZM10.375 25.5C8.5875 25.5 7.14125 26.925 7.14125 28.6667C7.14125 30.4083 8.5875 31.8333 10.375 31.8333C12.1625 31.8333 13.625 30.4083 13.625 28.6667C13.625 26.925 12.1625 25.5 10.375 25.5ZM10.375 20.75L12.1625 17.5833H24.2688C25.4875 17.5833 26.56 16.9342 27.1125 15.9525L34.2625 3.33332H7.46625L5.93875 0.166656H0.625V3.33332H3.875L9.725 15.3508L4.8825 23.9167H29.875V20.75H10.375Z" fill="white"/>
</svg>
